<svg width="240" height="64" viewBox="0 0 240 64" fill="none" xmlns="http://www.w3.org/2000/svg">
<path fill-rule="evenodd" clip-rule="evenodd" d="M136.14 43.7804C136.437 43.9152 137.066 44.0982 137.43 44.1559C137.515 44.1693 138.013 44.1737 138.537 44.1657C139.62 44.149 140.008 44.0731 140.726 43.7379C141.75 43.2592 142.418 42.4192 142.721 41.2276L142.839 40.764V29.894L141.798 29.8648L141.765 30.2606C141.746 30.4784 141.731 30.7947 141.731 30.9637V31.2709L141.274 30.8355C140.754 30.3405 140.169 30.0038 139.487 29.8062C139.13 29.703 138.97 29.6884 138.228 29.6921C137.457 29.6959 137.335 29.7093 136.917 29.8365C135.682 30.2123 134.86 30.9309 134.257 32.1619C133.949 32.7912 133.768 33.4762 133.698 34.2842C133.534 36.1714 134.145 37.9655 135.31 39.016C135.694 39.3624 136.496 39.7675 137.03 39.8846C138.619 40.2334 140.277 39.8019 141.409 38.7445C141.601 38.566 141.766 38.42 141.778 38.42C141.831 38.4199 141.727 40.5926 141.658 40.9054C141.425 41.9728 140.751 42.6564 139.627 42.9658C139.303 43.0549 139.082 43.0746 138.383 43.0768C137.425 43.0798 136.964 42.9878 136.425 42.6859C135.672 42.2643 135.393 41.7944 135.314 40.8199L135.278 40.3776H134.195L134.224 40.9314C134.299 42.3171 134.906 43.2213 136.14 43.7804ZM140.598 37.9564C140.154 38.4053 139.765 38.6313 139.176 38.7819C138.347 38.9941 137.162 38.8854 136.512 38.5374C136.058 38.2941 135.558 37.7458 135.277 37.1836C134.942 36.5129 134.827 36.0317 134.793 35.1487C134.733 33.6123 135.181 32.3541 136.079 31.542C136.688 30.991 137.328 30.7738 138.331 30.778C138.882 30.7803 139.035 30.8002 139.387 30.9157C140.077 31.1415 140.556 31.5277 141.015 32.2272C141.512 32.9843 141.742 33.8273 141.741 34.8911C141.74 36.2292 141.397 37.1479 140.598 37.9564Z" fill="black"/>
<path fill-rule="evenodd" clip-rule="evenodd" d="M106.237 39.3569C106.889 40.0798 107.631 40.505 108.606 40.7146C109.102 40.8213 110.376 40.7805 110.835 40.6432C113.009 39.9932 114.274 37.811 114.156 34.9168C114.084 33.1733 113.499 31.7513 112.442 30.7504C111.676 30.0258 110.916 29.7243 109.74 29.6786C108.317 29.6234 107.315 29.9885 106.38 30.9026L105.928 31.3445L105.902 26.0302L104.794 26.001V40.5322H105.329C105.613 40.5322 105.762 40.5444 105.841 40.4757C105.939 40.3898 105.926 40.1775 105.927 39.6571L105.927 39.0138L106.237 39.3569ZM112.494 37.8533C111.992 38.8581 111.263 39.4442 110.285 39.6315C109.249 39.8296 108.188 39.5926 107.436 38.9948C106.886 38.5571 106.31 37.6021 106.08 36.7457C105.924 36.1613 105.881 34.7315 106 34.0462C106.181 33.0072 106.522 32.3017 107.138 31.6908C107.727 31.1081 108.398 30.8275 109.35 30.7662C110.252 30.7081 111.113 30.9755 111.687 31.4919C112.005 31.7772 112.42 32.4135 112.628 32.935C113.257 34.5057 113.205 36.4323 112.494 37.8533Z" fill="black"/>
<path fill-rule="evenodd" clip-rule="evenodd" d="M115.415 39.8372C115.896 40.2912 116.422 40.5488 117.209 40.7156C117.698 40.819 119.075 40.7788 119.553 40.6472C120.364 40.4242 121.025 40.0575 121.601 39.5099L121.897 39.2286L121.899 39.4296C121.901 39.8812 122.25 40.3099 122.73 40.4527C122.906 40.5047 123.208 40.5322 123.607 40.5322H124.216V39.5018L123.739 39.5011C123.459 39.5006 123.21 39.4735 123.134 39.4352L123.005 39.37L122.978 35.7139C122.954 32.4922 122.96 31.9803 122.782 31.5441C122.737 31.4337 122.679 31.3281 122.607 31.1845C122.289 30.5553 121.475 29.9936 120.574 29.7823C120.009 29.6497 118.636 29.6493 118.073 29.7815C116.292 30.1993 115.204 31.4961 115.201 33.2039L115.2 33.6804H116.282V33.355C116.282 32.5856 116.495 32.0142 116.949 31.5683C117.525 31.0024 118.21 30.7785 119.373 30.7768C120.138 30.7757 120.549 30.8429 120.954 31.0354C121.507 31.2977 121.852 32.0693 121.861 33.0635C121.871 34.1581 121.538 34.3021 118.777 34.3977C117.199 34.4524 116.864 34.5122 116.141 34.8673C115.054 35.4014 114.585 36.2514 114.583 37.6913C114.581 38.6886 114.803 39.2604 115.415 39.8372ZM120.038 39.2885C119.8 39.4053 119.466 39.5368 119.296 39.5808C118.855 39.695 117.839 39.7227 117.37 39.6334C116.611 39.4887 116.106 39.1274 115.825 38.5292C115.701 38.2647 115.69 38.1862 115.694 37.6215C115.697 37.1051 115.717 36.9533 115.816 36.7003C116.037 36.1336 116.424 35.8349 117.202 35.6309C117.519 35.5475 117.865 35.5187 118.987 35.4822C120.433 35.4352 121.04 35.3639 121.561 35.1799C121.73 35.1202 121.878 35.0714 121.891 35.0714C121.903 35.0714 121.9 35.4597 121.883 35.9343C121.858 36.6279 121.828 36.8794 121.73 37.2161C121.469 38.1091 120.817 38.9072 120.038 39.2885Z" fill="black"/>
<path fill-rule="evenodd" clip-rule="evenodd" d="M146.78 39.6668C147.21 40.164 148.046 40.593 148.866 40.738C149.332 40.8203 150.671 40.764 151.133 40.6427C151.739 40.4835 152.501 40.0818 152.994 39.6617L153.411 39.3053L153.473 39.58C153.555 39.9465 153.771 40.2326 154.078 40.3825C154.296 40.489 154.419 40.5066 155.061 40.5239L155.795 40.5436V39.5018H155.339C155.089 39.5018 154.812 39.4769 154.724 39.4464L154.565 39.3909L154.545 35.8016C154.528 32.6207 154.516 32.1744 154.437 31.8801C154.159 30.8307 153.505 30.2003 152.317 29.8356C151.881 29.702 151.798 29.6938 150.876 29.6943C149.749 29.6949 149.405 29.7623 148.639 30.133C148.285 30.3046 148.115 30.4309 147.755 30.7905C147.08 31.4656 146.807 32.1055 146.744 33.1542L146.713 33.6841L147.836 33.6547L147.868 33.1138C147.914 32.3496 148.083 31.9614 148.569 31.5082C149.125 30.9898 149.792 30.7813 150.901 30.7793C151.693 30.7778 152.162 30.8551 152.544 31.0503C153.075 31.321 153.424 32.1304 153.424 33.088C153.423 33.5866 153.307 33.8861 153.056 34.0392C152.697 34.2573 151.511 34.4013 150.071 34.4016C148.855 34.4018 147.922 34.6447 147.231 35.1415C146.626 35.5765 146.288 36.1829 146.164 37.0548C146.012 38.1197 146.226 39.0251 146.78 39.6668ZM152.37 38.7052C151.899 39.1782 151.52 39.4006 150.918 39.558C150.531 39.6589 149.504 39.731 149.201 39.6786C148.385 39.5371 148.064 39.3929 147.714 39.01C147.356 38.6182 147.243 38.2945 147.244 37.6582C147.246 36.4355 147.664 35.8895 148.815 35.6074C149.015 35.5583 149.623 35.515 150.541 35.4843C151.993 35.4358 152.589 35.3651 153.135 35.1771L153.437 35.0731L153.415 36.0124C153.396 36.8636 153.381 36.9872 153.259 37.3296C153.06 37.8876 152.83 38.2425 152.37 38.7052Z" fill="black"/>
<path d="M178.592 40.5249L179.055 40.5436C179.31 40.5539 179.631 40.5671 179.768 40.573C179.905 40.5789 180.009 40.5626 180 40.5367C179.99 40.5109 178.847 39.0626 177.459 37.3183C176.07 35.574 174.93 34.1288 174.925 34.1068C174.919 34.0848 176.035 33.1395 177.404 32.0061L179.894 29.9455L179.449 29.9123C179.204 29.8941 178.841 29.8772 178.643 29.8749L178.282 29.8706L171.894 35.1851L171.868 26.0045H170.787V40.5322H171.869V36.6305L172.858 35.8123C173.403 35.3623 173.897 34.9554 173.956 34.9081C174.062 34.8236 174.104 34.8729 176.328 37.6735L178.592 40.5249Z" fill="black"/>
<path d="M124.525 29.8682V40.5322H125.601L125.62 37.1449C125.638 33.8771 125.642 33.743 125.749 33.3397C126.105 31.9934 126.908 31.1135 128.028 30.8419C128.447 30.7402 129.376 30.7535 129.754 30.8666C130.681 31.1445 131.282 31.7216 131.551 32.5923C131.652 32.9202 131.656 33.0805 131.673 36.7328L131.691 40.5322H132.772L132.755 36.604C132.739 32.7051 132.738 32.6731 132.623 32.2987C132.416 31.6224 132.178 31.2243 131.692 30.7381C131.331 30.3777 131.165 30.255 130.81 30.0847C130.113 29.7511 129.826 29.6923 128.878 29.69C128.167 29.6882 127.998 29.7042 127.644 29.8064C127.002 29.9925 126.465 30.2994 126.007 30.7433L125.607 31.1308V29.8682H124.525Z" fill="black"/>
<path d="M144.256 26.0045V40.5322H145.338V26.0045H144.256Z" fill="black"/>
<path d="M156.079 26.0302L156.053 40.5322H157.187L157.161 26.0302H156.079Z" fill="black"/>
<path d="M158.603 29.894L158.577 40.5322H159.711L159.685 29.894H158.603Z" fill="black"/>
<path d="M161.102 29.8682L161.102 40.5322H162.177L162.215 33.8092L162.349 33.3152C162.55 32.572 162.929 31.8945 163.361 31.5038C163.92 30.9994 164.518 30.783 165.378 30.7752C165.724 30.772 166.088 30.7989 166.254 30.84C166.984 31.0212 167.609 31.4828 167.916 32.0676C168.258 32.7212 168.263 32.7839 168.263 36.8723V40.5322H169.345V36.7435C169.345 33.4922 169.333 32.8985 169.263 32.5578C168.98 31.174 168.073 30.2079 166.681 29.8042C166.337 29.7047 166.16 29.6881 165.455 29.689C164.758 29.69 164.569 29.7079 164.229 29.8055C163.515 30.0105 162.821 30.439 162.391 30.941L162.185 31.1819L162.183 29.8682H161.102Z" fill="black"/>
<path d="M158.577 26.001V28.6833H159.712L159.685 26.0302L158.577 26.001Z" fill="black"/>
<path fill-rule="evenodd" clip-rule="evenodd" d="M60.7796 51.3935C61.2052 51.8799 61.8193 52.2531 62.447 52.4066C62.6819 52.464 65.7467 52.4744 80.3748 52.4671L98.0193 52.4582L98.3666 52.3231C99.3446 51.9426 100.055 51.2169 100.378 50.2696L100.492 49.9339L100.506 32.3925C100.52 15.0378 100.543 14.4218 100.291 13.9529C100.261 13.8969 100.227 13.8431 100.189 13.7631C99.8382 13.0314 99.1836 12.4426 98.4045 12.1583L98.0193 12.0177L80.3772 12.0045C64.755 11.9928 62.6995 12.0003 62.4237 12.0694C61.5288 12.2938 60.7283 12.9391 60.3469 13.7435C60.2327 13.9843 60.108 14.3089 60.0697 14.4647C60.0118 14.7 60 17.7143 60 32.238C60 48.7478 60.0051 49.7466 60.0904 50.0627C60.2145 50.5228 60.4997 51.0735 60.7796 51.3935ZM85.9495 50.3482C85.9708 50.3695 87.1115 50.5579 87.4328 50.5931C88.24 50.6817 88.7975 50.5946 89.1753 50.3209C89.5101 50.0784 89.7142 49.7608 90.318 48.543C90.627 47.9196 91.0461 47.1546 91.2493 46.8429C91.4525 46.5313 91.7709 46.0212 91.9569 45.7096C92.1429 45.3979 92.6109 44.6329 92.9968 44.0095C94.5403 41.5165 94.8561 40.8715 95.5782 38.7375C96.2197 36.8416 96.706 35.1603 97.8456 30.8985C98.2954 29.2167 98.321 29.0936 98.3205 28.6061C98.3201 28.0718 98.2107 27.5529 98.0637 27.3885C98.0224 27.3422 97.8533 27.255 97.688 27.1947C97.3205 27.0607 96.9983 26.7357 96.9085 26.4084C96.7617 25.8729 97.078 21.8161 97.4583 19.3588C97.5655 18.6658 98.0713 15.9446 98.1732 15.5122C98.1965 15.4137 98.1688 15.3939 97.9395 15.3448C97.7965 15.3141 97.6512 15.289 97.6166 15.289C97.5764 15.289 97.4733 15.6663 97.3314 16.3322C96.7491 19.0656 96.1353 20.9085 95.1294 22.9437C94.603 24.0087 94.2409 24.5722 93.1959 25.9529C91.8302 27.7572 91.703 27.969 90.3325 30.719C89.796 31.7953 89.2184 32.9077 89.0488 33.191C88.5148 34.0831 87.4868 35.6539 84.986 39.3988C82.3743 43.3097 81.1787 45.152 80.7234 45.9672C80.4106 46.527 80.0482 47.3013 79.3931 48.8089C79.1612 49.3427 78.9148 49.8918 78.8455 50.0292C78.7762 50.1666 78.7272 50.2867 78.7366 50.2961C78.7896 50.3491 79.7674 50.4428 80.2977 50.4457C80.8428 50.4487 80.9444 50.4351 81.1564 50.3306C81.4605 50.1809 81.7397 49.8787 82.0258 49.39C82.1492 49.1792 82.7567 47.9518 83.3758 46.6626C85.375 42.4994 86.1109 41.2334 87.6129 39.373C88.5485 38.2143 89.0673 37.5174 89.6865 36.5874C91.5754 33.7507 92.9842 30.697 94.0577 27.1125C94.1881 26.677 94.2497 26.4663 94.3502 26.2764C94.4503 26.0873 94.5891 25.9186 94.8729 25.569C95.1018 25.287 95.3135 25.0241 95.3433 24.9848C95.3833 24.9321 95.4596 24.9226 95.6332 24.9486L95.8688 24.9839L96.0297 25.9718C96.2516 27.334 96.2461 27.7351 95.9879 29.0311C95.0793 33.5922 93.79 37.4457 91.8899 41.2791C90.3668 44.3519 88.6418 47.0294 86.5357 49.5898C86.2019 49.9956 85.9382 50.3369 85.9495 50.3482ZM63.1942 50.4401L63.3745 50.5051C63.4737 50.5408 63.578 50.5716 63.6063 50.5734C63.7052 50.5799 64.6538 49.356 65.7191 47.8475C66.3094 47.0117 67.4682 45.3773 68.2943 44.2156C69.1204 43.0539 69.8898 41.9643 70.0042 41.7943C70.536 41.0036 71.3209 39.6263 71.8682 38.523C72.539 37.171 72.9323 36.2181 73.4631 34.6593C74.3454 32.0683 75.1152 30.1892 76.1225 28.1682C77.4135 25.5778 78.3963 24.0519 81.3811 20.0028C83.2066 17.5263 83.9461 16.4713 84.1073 16.1133C84.3158 15.6502 84.3494 15.036 84.1939 14.5328C84.1136 14.2731 84.0736 14.1318 84.0113 14.1211C83.9376 14.1085 83.8328 14.2778 83.5938 14.6489C83.3761 14.9868 83.1134 15.3907 83.01 15.5466C82.9067 15.7024 82.3217 16.3284 81.7102 16.9375C79.7269 18.9132 78.7019 20.3843 77.2055 23.4029C76.0967 25.6395 75.374 27.3409 73.42 32.3152C72.7744 33.9586 72.1598 35.5119 72.0542 35.7669C71.4661 37.1875 71.0061 37.7896 70.2278 38.1576C69.8992 38.313 69.3734 38.4602 69.3239 38.4106C69.2607 38.3475 68.7754 32.9905 68.6853 31.3622C68.5369 28.6802 68.5662 27.8961 68.8874 25.9558C69.3197 23.344 70.6072 16.913 71.0735 15.0361C71.2312 14.4011 71.3503 13.8716 71.3382 13.8595C71.2908 13.8121 69.3493 14.4784 69.1374 14.6148C68.8536 14.7974 68.0949 15.4833 66.363 17.1228C64.8187 18.5846 64.158 19.1834 63.363 19.8413C62.3199 20.7045 62.0293 21.2989 62.1028 22.4182C62.1409 22.9988 62.2934 23.9438 62.349 23.9438C62.4289 23.9438 63.5763 22.7675 64.4079 21.8331C66.0022 20.0417 66.8177 19.3392 67.9337 18.796C68.7323 18.4073 68.74 18.4048 68.7082 18.5488C68.6943 18.6118 68.6468 18.9995 68.6027 19.4103C68.4364 20.9588 68.3088 21.7798 68.0622 22.8892C67.4058 25.8417 67.144 27.845 67.0988 30.2601C67.0672 31.9494 67.1198 32.9821 67.3032 34.2729C67.4526 35.3244 67.4636 37.2829 67.325 38.1624C67.1534 39.251 66.8439 40.3761 66.4409 41.3758C66.345 41.6136 65.953 42.4425 65.5698 43.2179C65.1865 43.9933 64.7244 44.9871 64.5429 45.4262C64.0827 46.5395 63.2826 48.633 63.2178 48.8932C63.1882 49.0122 63.1708 49.409 63.1791 49.7749L63.1942 50.4401ZM67.3928 50.2127C67.3928 50.2503 67.6487 50.33 68.1398 50.4452C68.3556 50.4959 68.9759 50.428 69.2549 50.3232C69.6492 50.175 70.0612 49.9009 70.6136 49.4194C72.8122 47.5026 74.5987 45.4367 76.3831 42.7474C77.8184 40.5843 78.7257 38.9063 80.4926 35.1475C82.2787 31.3478 83.1991 29.458 84.0037 27.9381C85.2339 25.6142 85.4137 25.2004 85.9662 23.4218C86.6327 21.2763 87.2276 19.9822 88.1157 18.7459C88.2908 18.5022 88.7842 17.9434 89.2122 17.5042C89.6402 17.065 90.0455 16.6261 90.1127 16.5289C90.2804 16.2866 91.041 14.8103 91.0128 14.782C90.9857 14.755 90.6426 15.0264 90.1152 15.492C89.6675 15.8872 87.7242 17.962 87.2414 18.5603C86.0431 20.045 85.225 21.7294 84.812 23.5621C84.6517 24.2735 84.4457 24.7717 84.0898 25.309C83.9772 25.479 83.2186 26.4642 82.404 27.4984C78.0381 33.0413 76.3538 35.4549 74.6564 38.6003C73.4471 40.8412 72.9147 41.6703 70.5902 44.9328C69.1331 46.9778 68.5359 47.8551 68.2557 48.3627C68.0482 48.7385 67.3928 50.1437 67.3928 50.2127ZM98.2049 40.1316C98.1784 40.0838 95.5928 46.7633 94.245 50.3616C94.2254 50.4138 94.281 50.4214 94.4969 50.3958C95.8942 50.2302 96.8551 49.4634 97.5848 47.9315C98.1805 46.6808 98.4286 45.2866 98.4291 43.1853C98.4294 41.9147 98.3128 40.3262 98.2049 40.1316ZM78.7608 44.3631C77.9952 45.3554 77.4385 46.114 77.4385 46.165C77.4385 46.2292 77.5025 46.1986 77.7665 46.0084C79.0921 45.0529 80.2647 43.8616 81.0582 42.6642C81.7715 41.5878 82.2055 40.6145 82.6313 39.1366C83.0923 37.5364 83.4733 36.5752 84.6587 34.0217C85.4832 32.2456 86.0813 31.0582 86.9975 29.3788C87.3839 28.6704 88.0834 27.3606 88.552 26.4681C90.6706 22.4328 90.9145 22.0391 93.7212 18.1213C95.0969 16.2011 95.293 15.8956 95.3897 15.5229C95.479 15.1787 95.4956 14.5585 95.4193 14.416C95.3436 14.2745 94.9888 14.1556 94.642 14.1556C94.0281 14.1556 93.7328 14.4337 93.1576 15.5538C92.3669 17.0934 92.0101 17.6263 90.6209 19.3424C87.2606 23.4933 85.7349 26.4267 84.9321 30.2803C84.6126 31.8137 84.2026 32.991 82.9766 35.8957C82.248 37.6217 81.8419 38.6665 81.4881 39.7249C80.9494 41.3363 80.4798 42.135 78.7608 44.3631ZM62.1324 34.1786C62.164 34.8068 62.2051 35.9146 62.2238 36.6403L62.2577 37.9597L62.4016 37.8218C62.6811 37.5541 62.7008 37.4522 62.7857 35.8346C62.8292 35.004 62.8857 33.2348 62.9113 31.9031C62.9603 29.3445 62.9879 29.0238 63.2475 27.9962C63.5144 26.9399 63.9996 25.942 64.6648 25.0812C64.9726 24.683 65.6412 23.5824 65.6412 23.474C65.6412 23.4552 65.5449 23.4013 65.4273 23.3542L65.2133 23.2686L65.0088 23.4645C64.6688 23.7902 64.0442 24.5596 63.7206 25.0514C62.9623 26.2037 62.4425 27.6686 62.2125 29.3015C62.1006 30.0958 62.0579 32.6983 62.1324 34.1786ZM70.484 30.7275C70.4839 30.761 70.536 30.7989 70.5997 30.8117C70.9163 30.8756 70.9579 30.8437 71.0919 30.4349C71.1615 30.2224 71.538 29.1181 71.9286 27.9809C72.9779 24.9261 73.3051 23.8018 73.7033 21.8831C73.932 20.781 74.0861 20.2024 74.375 19.361C74.918 17.7797 75.6956 16.3183 76.7292 14.937L77.179 14.3359L76.961 14.2943C76.8411 14.2714 76.4533 14.2626 76.0991 14.2748C74.8928 14.3162 74.4333 14.6483 73.9608 15.8202C73.6403 16.615 72.9159 19.4696 71.9778 23.6347C71.7193 24.7822 71.3693 26.3334 71.1999 27.0817C70.9342 28.2554 70.4848 30.5442 70.484 30.7275ZM84.058 19.5263C82.731 22.5084 81.6362 24.9658 81.6252 24.987C81.6143 25.0083 81.6274 25.0256 81.6545 25.0256C81.6816 25.0256 81.884 24.8344 82.1044 24.6006C83.678 22.9313 84.5784 21.2102 85.9652 17.2209C86.2409 16.4275 86.5813 15.469 86.7214 15.0908C86.8615 14.7126 86.9688 14.3972 86.9598 14.39C86.9507 14.3827 86.8371 14.3155 86.7071 14.2405L86.4709 14.1043L84.058 19.5263ZM62.2159 16.5512C62.2338 16.8345 62.2605 17.1086 62.2753 17.1604C62.29 17.2121 62.3089 17.2469 62.3173 17.2376C62.333 17.2204 64.1414 14.445 64.2217 14.3149C64.2592 14.254 64.208 14.2478 63.9026 14.2762C63.4356 14.3196 62.9561 14.4695 62.7282 14.6433C62.3389 14.9402 62.1569 15.6182 62.2159 16.5512Z" fill="#F26522"/>
</svg>
