<svg width="240" height="64" viewBox="0 0 240 64" fill="none" xmlns="http://www.w3.org/2000/svg">
<path d="M126.611 56.5469C126.718 56.1924 128.252 50.6605 130.021 44.2539C131.79 37.8472 133.334 32.4225 133.452 32.1991C133.57 31.9756 134.459 35.4449 135.427 39.9086C137.051 47.3939 137.148 48.0692 136.681 48.601C136.402 48.9182 134.178 50.8257 131.738 52.84C125.886 57.6702 126.381 57.3124 126.611 56.5469ZM137.451 44.3347C137.042 43.0542 134.716 32.0452 134.83 31.9288C134.975 31.781 154.849 34.9396 155.664 35.24C156.063 35.387 138.607 44.6668 137.828 44.7217C137.692 44.7313 137.522 44.5572 137.451 44.3347ZM149.282 40.0243C153.529 37.7931 157.071 36.0372 157.155 36.1224C157.238 36.2077 157.114 36.6871 156.879 37.1878C156.51 37.9743 155.482 38.5025 149.324 41.0699C145.403 42.7043 142.053 44.0505 141.879 44.0614C141.704 44.0723 145.036 42.2556 149.282 40.0243ZM76.7542 38.875C76.3185 38.6977 75.6411 38.2447 75.2489 37.8684L74.5357 37.1843V38.0497C74.5357 38.7672 74.3941 38.915 73.7064 38.915C73.0012 38.915 72.9058 38.8062 73.0683 38.1869C73.1734 37.7865 73.2613 34.3648 73.2637 30.5831L73.268 23.7073H74.0602C74.8497 23.7073 74.8525 23.718 74.8525 26.7812C74.8525 28.4718 74.9298 29.8551 75.0242 29.8551C75.1186 29.8551 75.5002 29.5657 75.872 29.212C77.4538 27.7074 80.437 28.1825 81.7325 30.1454C83.7122 33.1448 82.688 37.5269 79.7103 38.7972C78.5142 39.3075 77.8588 39.3247 76.7542 38.875ZM79.8085 36.8554C80.5567 36.1982 80.6985 35.7928 80.8111 33.9874C80.9329 32.0343 80.877 31.8103 80.0258 30.8376C78.7422 29.3708 76.9981 29.355 75.7349 30.7985C74.9808 31.6602 74.8526 32.0844 74.8526 33.7182C74.8526 35.3025 74.993 35.8 75.673 36.6252C76.7318 37.9099 78.496 38.0081 79.8085 36.8554ZM144.889 32.3529C139.399 31.4566 134.845 30.6716 134.77 30.6083C134.62 30.4817 139.745 11.1773 140.105 10.5137C140.246 10.2526 143.297 14.35 148.415 21.6768C152.863 28.0435 156.607 33.4345 156.736 33.657C157.095 34.2792 155.851 34.1423 144.889 32.3529ZM154.927 29.3792C153.06 26.7404 151.571 24.5434 151.618 24.497C151.744 24.3711 162.422 22.4061 162.486 22.4968C162.528 22.555 160.028 29.5715 158.432 33.8765C158.37 34.0417 156.793 32.0179 154.927 29.3792ZM124.539 18.6124C119.709 12.2665 115.788 7.04204 115.827 7.00247C115.922 6.90481 138.921 9.73652 139.024 9.85871C139.166 10.0261 133.68 30.1794 133.496 30.1645C133.401 30.1567 129.37 24.9582 124.539 18.6124ZM162.581 25.016L163.407 22.7655L165.636 24.9227C166.862 26.1091 167.925 27.1218 167.997 27.1731C168.07 27.2245 166.695 27.2665 164.942 27.2665H161.756L162.581 25.016ZM119.544 15.6013L114.955 11.0881L116.375 11.0989C117.749 11.1093 117.844 11.1775 119.418 13.283C120.312 14.4783 121.853 16.5119 122.843 17.8021C123.833 19.0923 124.528 20.1405 124.388 20.1313C124.247 20.1221 122.067 18.0836 119.544 15.6013Z" fill="#E21478"/>
<path d="M97.7658 38.9111C96.7659 38.5 95.9878 36.7972 96.2207 35.5299C96.5514 33.7296 97.9892 32.7452 100.933 32.3038C102.307 32.0976 102.433 32.0084 102.246 31.3699C102.132 30.9816 101.854 30.4645 101.627 30.2209C101.15 29.7069 98.9341 29.6609 98.0453 30.1466C97.3533 30.5247 97.0362 30.3244 97.0362 29.5091C97.0362 28.3921 100.755 27.7997 102.424 28.6509C103.88 29.3938 104.324 30.9037 104.325 35.113V38.9149H103.522C103.081 38.9149 102.642 38.7059 102.546 38.4504C102.4 38.0638 102.203 38.0907 101.367 38.6111C100.306 39.2714 98.9226 39.3867 97.7658 38.9111ZM101.767 36.7681C102.136 36.2892 102.424 35.4383 102.424 34.8267C102.424 33.7951 102.364 33.7378 101.299 33.7378C98.9247 33.7378 97.4893 35.341 98.4803 36.8853C99.1692 37.9588 100.897 37.8971 101.767 36.7681ZM107.256 38.9048C106.515 38.6007 106.416 38.3364 106.729 37.5038C106.872 37.1228 107.093 37.0799 107.7 37.3155C108.866 37.7682 110.533 37.6853 110.966 37.1531C111.738 36.2033 111.217 35.2359 109.443 34.3221C107.413 33.2767 106.884 32.6355 106.87 31.2053C106.863 30.4382 107.127 29.857 107.787 29.183C108.558 28.3957 108.973 28.2371 110.261 28.2371C111.963 28.2371 113.017 28.7955 112.734 29.5478C112.601 29.9016 112.062 30.0303 110.736 30.0246C108.929 30.0168 108.92 30.0216 108.92 30.9854C108.92 31.8315 109.135 32.0646 110.616 32.8286C111.549 33.3097 112.507 33.9658 112.745 34.2868C113.268 34.9916 113.327 36.7711 112.856 37.6693C112.176 38.9661 109.074 39.6506 107.256 38.9048ZM85.3105 31.6346V24.3543H86.2613H87.212V27.8235V31.2928L87.925 30.2787C88.3172 29.721 89.4937 28.1666 90.5395 26.8244C92.3037 24.5603 92.5287 24.383 93.656 24.3692L94.871 24.3543L93.9179 25.5677C93.3937 26.2351 92.2482 27.6394 91.3726 28.6885L89.7804 30.5959L92.4575 34.562C93.93 36.7434 95.1347 38.6152 95.1347 38.7215C95.1347 38.8279 94.6544 38.9149 94.0674 38.9149C92.9859 38.9149 92.5281 38.3495 88.7367 32.3305C88.5932 32.1028 88.2942 32.191 87.8652 32.5874C87.2993 33.1103 87.212 33.5737 87.212 36.0529V38.9149H86.2613H85.3105V31.6346ZM115.734 31.1278V23.3406L116.605 23.443L117.477 23.5454L117.653 26.7811C117.75 28.5607 117.857 29.8385 117.891 29.6206C117.986 29.0045 119.699 28.2371 120.979 28.2371C121.872 28.2371 122.381 28.488 123.213 29.3373L124.29 30.4374V34.6761V38.9149H123.34H122.389V35.2375C122.389 32.0071 122.309 31.4565 121.732 30.7075C120.873 29.593 119.472 29.5684 118.413 30.6492C117.677 31.4007 117.635 31.6442 117.635 35.1791V38.9149H116.684H115.734V31.1278Z" fill="black"/>
</svg>
