<svg width="240" height="64" viewBox="0 0 240 64" fill="none" xmlns="http://www.w3.org/2000/svg">
<path d="M63.7583 41.104C61.327 40.4848 60.0145 38.7976 60.0049 36.2793L60 34.9447L62.2488 35.0107L64.4975 35.0767L64.5701 36.2283C64.6603 37.6582 65.1075 38.1904 66.219 38.1904C67.3206 38.1904 67.8225 37.7965 67.9833 36.8057C68.161 35.7108 67.5523 34.9813 65.4616 33.7835C61.3065 31.403 60.3657 30.4758 60.094 28.4934C59.7925 26.2935 60.948 24.275 62.9514 23.5019C64.3112 22.9772 68.0167 22.9217 69.2257 23.408C71.0136 24.127 71.9892 25.6188 71.9922 27.6385V28.5034H69.8011H67.6099V27.6166C67.6099 26.5747 67.0662 25.9663 66.1351 25.9663C64.8077 25.9663 64.0689 27.0255 64.6437 28.1045C65.0096 28.7915 65.2857 28.9916 67.8188 30.4059C70.6158 31.9676 71.8237 33.1261 72.1959 34.6041C72.5502 36.0115 72.338 37.8342 71.6815 39.022C70.6446 40.8977 66.8557 41.8932 63.7572 41.104H63.7583ZM119.141 40.8633C116.973 40.1844 115.815 38.584 115.815 36.2641V34.9447L118.064 35.0107L120.313 35.0767L120.383 36.2829C120.436 37.2103 120.568 37.57 120.953 37.8397C121.596 38.2904 122.494 38.287 123.145 37.8314C123.789 37.3803 123.849 35.9309 123.254 35.2285C123.032 34.9667 121.657 34.0355 120.198 33.1593C116.165 30.737 115.244 29.1522 116.193 26.2702C116.747 24.5877 117.701 23.8025 119.829 23.2773C121.136 22.9547 121.707 22.9274 123.063 23.1228C126.251 23.582 127.382 24.575 127.54 27.0521L127.632 28.5034H125.529H123.427V27.6962C123.427 26.1497 121.705 25.382 120.635 26.4517C120.264 26.8222 120.183 27.1086 120.289 27.6625C120.46 28.5489 121.136 29.1182 123.537 30.3993C125.761 31.5853 127.459 33.0933 127.827 34.2083C128.204 35.3519 127.981 37.9683 127.425 38.9206C126.899 39.8206 125.78 40.6287 124.607 40.9544C123.459 41.2735 120.282 41.2205 119.141 40.8633V40.8633ZM135.766 40.9731C134.279 40.6112 133.112 39.7277 132.393 38.4211C132.148 37.9752 132.059 36.21 132.003 30.6369L131.931 23.4293H134.137H136.343V30.2077C136.343 36.4869 136.375 37.0254 136.774 37.5191C137.307 38.1774 138.688 38.2505 139.287 37.652C139.646 37.2933 139.694 36.5386 139.754 30.3406L139.822 23.4293H141.888H143.954V30.5866C143.954 38.4455 143.908 38.7592 142.591 39.8677C141.254 40.9923 138.006 41.5184 135.766 40.9731ZM170.942 40.5192C169.425 39.98 168.305 38.8505 167.939 37.4911C167.771 36.8684 167.705 34.7475 167.752 31.5335C167.823 26.7089 167.845 26.5084 168.402 25.5051C170.237 22.2019 177.646 22.1949 179.352 25.4947C179.549 25.8746 179.775 26.8108 179.855 27.5751L180 28.9647H177.806H175.612L175.49 27.8832C175.347 26.6162 174.902 26.197 173.699 26.197C172.147 26.197 172.092 26.3948 172.092 32.0224C172.092 36.2418 172.148 37.0597 172.455 37.3664C172.918 37.8294 173.771 38.0438 174.381 37.8502C175.343 37.5449 175.552 37.0874 175.552 35.2909V33.5776H174.745H173.938V32.309V31.0405H176.936H179.934V34.0463C179.934 38.0599 179.454 39.1975 177.282 40.3314C175.934 41.0351 172.665 41.132 170.942 40.5192ZM75.2223 40.489C75.2223 40.0529 78.2481 23.8022 78.3643 23.6141C78.4271 23.5124 80.1363 23.4293 82.1625 23.4293C84.8996 23.4293 85.8735 23.5033 85.9517 23.7176C86.0552 24.0008 89.0609 40.3069 89.0609 40.5852C89.0609 40.6635 88.023 40.7275 86.7545 40.7275C85.0688 40.7275 84.4451 40.6499 84.4373 40.4392C84.383 38.9738 82.1756 25.288 82.0658 25.7357C81.929 26.2935 79.8348 40.205 79.8351 40.5545C79.8351 40.6496 78.7973 40.7275 77.5287 40.7275C76.0945 40.7275 75.2223 40.6373 75.2223 40.489ZM92.6481 33.5199C92.7147 29.5557 92.8253 25.6636 92.8939 24.8708L93.0185 23.4293H96.4598C98.3525 23.4293 99.9011 23.4728 99.9011 23.5261C99.9011 23.7997 101.999 36.4443 102.053 36.4987C102.089 36.5338 102.568 33.7373 103.119 30.2842C103.67 26.8311 104.169 23.8761 104.227 23.7176C104.305 23.5047 105.225 23.4293 107.742 23.4293H111.152L111.287 27.8691C111.361 30.3111 111.472 34.2032 111.535 36.5183L111.649 40.7275H109.465H107.282V32.9625C107.282 28.6918 107.237 25.2425 107.182 25.2976C107.091 25.3879 104.283 40.1795 104.283 40.5652C104.283 40.6545 103.304 40.7275 102.108 40.7275C100.232 40.7275 99.9168 40.6718 99.8205 40.3239C99.7591 40.1019 99.1034 36.599 98.3634 32.5397L97.0181 25.1591L96.9573 32.9433L96.8966 40.7275H94.7118H92.527L92.6481 33.5199ZM148.797 31.9631V23.4293H151.992H155.186L156.983 29.599C157.972 32.9923 158.872 35.9762 158.983 36.2299C159.103 36.5025 159.145 33.9749 159.084 30.0518L158.982 23.4124L161.097 23.4785L163.213 23.5446L163.273 32.0207L163.334 40.4968H160.235H157.136L156.9 39.7473C156.77 39.335 155.867 36.351 154.894 33.1163C153.921 29.8815 153.082 27.1885 153.03 27.1318C152.978 27.0751 152.964 30.0591 153 33.7629L153.064 40.4971L150.931 40.497L148.798 40.4968L148.797 31.9631Z" fill="black"/>
</svg>
