<svg width="240" height="64" viewBox="0 0 240 64" fill="none" xmlns="http://www.w3.org/2000/svg">
<path d="M159.892 47.9348C159.78 47.6132 159.791 47.3109 159.941 46.668C160.305 45.0944 161.493 41.957 162.777 39.1737C163.874 36.7943 164.469 35.3262 164.469 34.9973C164.469 34.6554 164.389 34.6679 163.051 35.2182C161.945 35.6734 160.03 35.9453 159.5 35.7225C158.506 35.3044 157.52 32.767 157.934 31.6896C157.981 31.5656 158.174 31.4759 158.392 31.4759C158.708 31.4759 158.78 31.5446 158.85 31.9149C158.986 32.6413 159.684 33.976 160.098 34.3025C160.414 34.5522 160.61 34.5984 161.163 34.5531C162.016 34.4832 162.778 34.1034 164.253 33.013C164.894 32.539 165.499 32.1512 165.598 32.1512C165.697 32.1512 165.887 32.2714 166.02 32.4183C166.212 32.6305 166.241 32.8038 166.165 33.2623C166.111 33.5797 166.019 34.1432 165.96 34.5145C165.824 35.3653 164.652 38.4966 164.158 39.3272C163.954 39.6715 163.612 40.4312 163.398 41.0153C163.184 41.5994 162.814 42.5635 162.575 43.1577C162.183 44.1331 161.684 45.8092 161.377 47.1826C161.135 48.2623 160.176 48.7485 159.892 47.9348ZM64.7537 38.5543C63.6215 38.2803 62.5226 37.6503 61.6354 36.7665C60.8139 35.9481 59.8284 34.3658 60.0255 34.1815C60.1932 34.0246 62.5066 33.0498 62.5627 33.1123C62.5882 33.1408 62.7406 33.4248 62.9014 33.7436C63.2777 34.4897 64.0964 35.2804 64.9062 35.6799C65.8626 36.1516 67.5779 36.1358 68.5169 35.6466C70.0037 34.8722 70.2098 33.5363 68.9998 32.5181C68.5026 32.0998 67.9458 31.8961 65.6134 31.2794C64.6106 31.0142 63.4173 30.6153 62.9615 30.3929C61.3923 29.6273 60.499 28.4347 60.3795 26.946C60.1428 23.9971 62.6836 21.8246 66.3562 21.8355C68.4635 21.8418 69.7286 22.2939 71.0699 23.5197C71.8381 24.2218 72.6107 25.334 72.4452 25.4995C72.3965 25.5482 71.8269 25.8174 71.1796 26.0978L70.0025 26.6076L69.7324 26.2466C68.8642 25.0865 67.7718 24.5429 66.2913 24.5342C65.4186 24.5291 65.1755 24.5833 64.5634 24.9193C63.0062 25.774 62.9128 27.0814 64.3535 27.8553C64.7122 28.048 65.9476 28.4557 67.0989 28.7614C69.6837 29.4477 70.9149 30.0264 71.738 30.9419C72.54 31.8339 72.8138 32.6668 72.749 34.0172C72.6887 35.2752 72.358 36.0257 71.475 36.9087C69.9051 38.4786 67.1887 39.1437 64.7537 38.5543ZM95.9011 38.5746C93.1764 37.9143 90.9351 35.5567 90.2585 32.639C89.944 31.2832 89.9795 28.9691 90.3342 27.6968C91.1266 24.8544 93.1232 22.7569 95.6674 22.0942C96.1041 21.9805 97.0131 21.8875 97.6876 21.8875C99.882 21.8875 101.473 22.4945 102.827 23.848C104.264 25.2849 105.065 27.3341 105.098 29.6528L105.115 30.8682L99.0718 30.9034L93.0283 30.9385V31.3281C93.0283 31.9926 93.5477 33.4042 94.0351 34.0645C94.9692 35.33 96.2731 35.9613 97.9845 35.9767C98.9909 35.9857 99.1749 35.9441 100.003 35.5207C100.85 35.0879 101.722 34.2468 102.189 33.4116C102.317 33.1834 102.414 33.2089 103.565 33.7728C104.246 34.1065 104.83 34.4228 104.863 34.4758C104.977 34.6599 104.191 35.7354 103.306 36.6078C101.824 38.067 99.9974 38.7736 97.7551 38.7551C97.1237 38.7499 96.2894 38.6686 95.9011 38.5746H95.9011ZM102.01 27.9309C101.746 26.6192 100.846 25.4824 99.6526 24.9512C98.8078 24.5752 97.2125 24.4914 96.2463 24.7723C95.0055 25.133 93.9094 26.2895 93.3763 27.8003L93.1754 28.3698H97.6367H102.098L102.01 27.9309ZM113.452 38.5592C113.06 38.4538 112.544 38.2684 112.304 38.1472C111.558 37.7704 110.479 36.9018 110.227 36.4753C110.095 36.2511 109.939 36.0676 109.88 36.0676C109.822 36.0676 109.774 36.5538 109.774 37.148V38.2284H108.424H107.073V26.6142V15H108.495H109.916L109.879 19.7267C109.859 22.3265 109.863 24.4535 109.889 24.4535C109.915 24.4534 110.207 24.1521 110.538 23.7838C111.692 22.4999 113.276 21.8443 115.244 21.8353C117.341 21.8258 118.996 22.6272 120.457 24.36C121.967 26.1514 122.54 27.8241 122.522 30.3956C122.512 31.8388 122.459 32.2404 122.153 33.1641C121.678 34.602 121.156 35.4748 120.101 36.5926C118.342 38.4574 115.832 39.1999 113.452 38.5592H113.452ZM116.756 35.5225C118.548 34.6442 119.633 32.7029 119.633 30.3738C119.633 27.9336 118.529 25.9366 116.679 25.0297C116.031 24.7122 115.75 24.6573 114.769 24.6567C113.743 24.656 113.522 24.7034 112.724 25.0962C111.663 25.6181 110.968 26.3421 110.438 27.4753C109.394 29.7117 109.779 32.85 111.305 34.5396C112.655 36.0333 114.891 36.4366 116.756 35.5225ZM127.939 38.5898C126.179 38.1391 124.519 36.7783 123.954 35.3248C123.545 34.2734 123.503 32.5478 123.862 31.5189C124.744 28.986 127.682 27.5879 131.327 27.966C132.432 28.0805 133.361 28.3141 134.252 28.7012C134.457 28.7902 134.488 28.7245 134.488 28.2057C134.488 26.8214 133.622 25.5199 132.258 24.8555C131.719 24.593 131.369 24.5269 130.502 24.5243C129.545 24.5213 129.313 24.573 128.509 24.9686C127.933 25.252 127.421 25.6301 127.113 25.9991L126.625 26.582L125.357 25.7664C124.66 25.3178 124.09 24.905 124.09 24.8489C124.09 24.5462 125.796 23.0633 126.617 22.6532C127.88 22.0216 128.78 21.8286 130.437 21.8342C133.285 21.8438 135.416 22.9535 136.503 24.9927C137.253 26.3997 137.32 27.0465 137.322 32.9277L137.324 38.2284H135.906H134.488V37.1507V36.073L133.509 37.0635C132.743 37.8383 132.354 38.1203 131.72 38.3588C130.73 38.7312 128.922 38.8417 127.939 38.5898ZM131.766 35.6088C133.146 34.9039 134.188 33.5099 134.419 32.0587C134.506 31.5153 134.489 31.4804 133.992 31.1523C133.163 30.6046 131.923 30.3522 130.437 30.4289C128.675 30.5197 127.596 31.0435 126.97 32.1115C126.129 33.5458 126.818 35.2207 128.515 35.8717C129.326 36.1827 130.889 36.0563 131.766 35.6088ZM74.5266 26.6142V15H76.0284H77.5302L77.476 19.6999L77.4219 24.3997L78.1894 23.6153C79.9676 21.7981 82.8128 21.2828 85.153 22.3542C86.7142 23.069 87.8477 24.6754 88.1587 26.6142C88.2393 27.1161 88.3 29.7907 88.3006 32.8602L88.3024 38.2284H86.8239H85.3453L85.3046 32.7251C85.2645 27.3115 85.2587 27.2109 84.9534 26.5483C84.3689 25.2804 83.5387 24.724 82.0745 24.6189C80.4873 24.5049 79.2366 25.1602 78.3369 26.577C77.5447 27.8247 77.4985 28.204 77.4985 33.4587V38.2284H76.0129H74.5274L74.5266 26.6142ZM146.245 37.4519C145.812 35.8943 146.252 34.9463 148.269 33.0852L149.642 31.8182L149.216 31.4629C148.982 31.2675 148.277 30.8788 147.649 30.5991C146.757 30.2015 146.504 30.0281 146.492 29.8041C146.464 29.3084 146.52 29.1176 146.743 28.9456C146.924 28.806 147.283 28.947 148.929 29.805L150.898 30.8313L152.991 29.9472C155.664 28.8177 155.679 28.8144 156.43 29.1784C157.318 29.6083 157.234 30.1255 156.277 30.1255C155.907 30.1255 153.944 30.5924 153.379 30.8146C153.185 30.8912 152.832 31.154 152.595 31.3987L152.163 31.8435L153.016 32.6191C153.484 33.0456 154.555 33.8499 155.395 34.4064C156.64 35.2312 156.914 35.4716 156.881 35.7078C156.858 35.8674 156.668 36.0794 156.458 36.1798C155.947 36.4239 155.624 36.2815 153.818 35.0149C150.674 32.8111 150.856 32.9109 150.292 33.0797C149.152 33.4214 147.405 35.5469 147.201 36.8426C147.016 38.0111 146.493 38.3446 146.245 37.4519ZM168.976 37.4866C167.684 37.2057 167.305 36.9617 167.305 36.4106C167.305 35.9766 167.423 35.8592 169.365 34.3579C171.475 32.7267 173.112 31.1998 173.112 30.8639C173.112 30.421 172.645 30.4089 170.876 30.8062C168.97 31.2343 168.503 31.2782 168.107 31.066C167.805 30.9046 167.727 29.9929 168.014 29.9869C168.107 29.9849 169.52 29.7486 171.154 29.4617C173.073 29.1248 174.205 28.9821 174.351 29.059C174.68 29.2326 174.891 29.9805 174.75 30.4725C174.429 31.5903 173.633 32.5209 171.226 34.5901C170.332 35.358 169.601 36.0279 169.601 36.0787C169.601 36.1296 169.708 36.1987 169.838 36.2324C170.048 36.2867 177.181 35.6465 178.598 35.446C179.154 35.3674 180 35.6563 180 35.925C180 36.1716 178.26 36.6062 176.691 36.7517C175.8 36.8344 174.676 37.0168 174.193 37.1571C173.226 37.4381 171.367 37.6942 170.415 37.6775C170.079 37.6716 169.431 37.5857 168.976 37.4866ZM140.599 37.0817C140.358 36.9768 140.161 36.8685 140.161 36.841C140.161 36.8135 140.255 36.5122 140.372 36.1715C140.525 35.7213 140.727 35.4565 141.111 35.2021C141.79 34.753 142.225 34.7547 142.582 35.208C143.091 35.8557 142.905 36.4125 142.003 36.9412C141.337 37.3318 141.205 37.345 140.599 37.0817Z" fill="black"/>
</svg>
