<svg width="120" height="40" viewBox="0 0 120 40" fill="none" xmlns="http://www.w3.org/2000/svg">
<path d="M5.625 28.5254C5.625 27.7447 5.77133 26.9671 6.064 26.1921C6.35733 25.4171 6.78383 24.7256 7.345 24.1151C7.90633 23.5056 8.58933 23.0112 9.3945 22.6329C10.1997 22.2547 11.1147 22.0661 12.139 22.0661C13.3588 22.0661 14.4172 22.3281 15.314 22.8522C16.2107 23.3772 16.8783 24.0602 17.3175 24.9022L15.012 26.5126C14.8655 26.1707 14.6797 25.8872 14.454 25.6614C14.2282 25.4356 13.9808 25.2526 13.7128 25.1122C13.4443 24.9719 13.1702 24.8744 12.8895 24.8196C12.6088 24.7647 12.3342 24.7369 12.0662 24.7369C11.4923 24.7369 10.9925 24.8529 10.5655 25.0852C10.1385 25.3167 9.78483 25.6159 9.50417 25.9811C9.2235 26.3472 9.01633 26.7626 8.882 27.2254C8.74783 27.6899 8.68083 28.1592 8.68083 28.6351C8.68083 29.1471 8.76033 29.6414 8.91883 30.1172C9.07717 30.5929 9.30583 31.0141 9.605 31.3792C9.90383 31.7452 10.2638 32.0352 10.6843 32.2491C11.1053 32.4617 11.5778 32.5687 12.1028 32.5687C12.371 32.5687 12.6483 32.5352 12.935 32.4682C13.2217 32.4014 13.4963 32.2972 13.7588 32.1569C14.0208 32.0166 14.262 31.8344 14.4813 31.6077C14.7012 31.3829 14.8777 31.1051 15.012 30.7761L17.4643 32.2211C17.2687 32.6967 16.9792 33.1244 16.595 33.5016C16.2107 33.8807 15.7683 34.1976 15.2683 34.4531C14.768 34.7096 14.2373 34.9047 13.6762 35.0396C13.1148 35.1734 12.566 35.2402 12.0295 35.2402C11.09 35.2402 10.2272 35.0479 9.44017 34.6641C8.6535 34.2794 7.9765 33.7702 7.40917 33.1364C6.84183 32.5016 6.40283 31.7824 6.092 30.9767C5.78067 30.1721 5.625 29.3544 5.625 28.5254Z" fill="white"/>
<path d="M21.1418 28.6527C21.1418 29.1536 21.2151 29.6387 21.3614 30.1079C21.5079 30.5772 21.7244 30.9956 22.0111 31.3616C22.2973 31.7267 22.6541 32.0204 23.0816 32.2396C23.5081 32.4591 23.9964 32.5687 24.5451 32.5687C25.1184 32.5687 25.6184 32.4536 26.0459 32.2211C26.4724 31.9897 26.8259 31.6877 27.1071 31.3152C27.3873 30.9434 27.5978 30.5224 27.7381 30.0531C27.8784 29.5839 27.9486 29.1044 27.9486 28.6166C27.9486 28.1166 27.8756 27.6316 27.7293 27.1622C27.5829 26.6921 27.3633 26.2776 27.0704 25.9179C26.7778 25.5584 26.4209 25.2711 25.9999 25.0574C25.5789 24.8446 25.0944 24.7369 24.5451 24.7369C23.9718 24.7369 23.4748 24.8502 23.0543 25.0761C22.6333 25.3019 22.2791 25.5972 21.9924 25.9634C21.7058 26.3296 21.4924 26.7467 21.3523 27.2171C21.2119 27.6864 21.1418 28.1649 21.1418 28.6527ZM24.5271 35.2402C23.5629 35.2402 22.6848 35.0517 21.8921 34.6734C21.0989 34.2952 20.4221 33.7981 19.8608 33.1821C19.2994 32.5659 18.8638 31.8616 18.5528 31.0689C18.2416 30.2752 18.0859 29.4584 18.0859 28.6166C18.0859 27.7626 18.2476 26.9392 18.5709 26.1466C18.8939 25.3539 19.3454 24.6551 19.9249 24.0511C20.5043 23.4471 21.1904 22.9656 21.9836 22.6051C22.7763 22.2456 23.6424 22.0661 24.5819 22.0661C25.5454 22.0661 26.4236 22.2547 27.2168 22.6329C28.0094 23.0112 28.6864 23.5111 29.2478 24.1337C29.8089 24.7554 30.2421 25.4636 30.5468 26.2562C30.8516 27.0487 31.0044 27.8546 31.0044 28.6714C31.0044 29.5254 30.8428 30.3487 30.5194 31.1414C30.1961 31.9349 29.7481 32.6329 29.1748 33.2369C28.6009 33.8409 27.9179 34.3259 27.1253 34.6911C26.3321 35.0572 25.4661 35.2402 24.5271 35.2402" fill="white"/>
<path d="M38.3237 32.5687C38.8357 32.5687 39.2687 32.4617 39.6229 32.2491C39.9766 32.0352 40.2631 31.7519 40.4829 31.3979C40.7022 31.0437 40.8579 30.6386 40.9494 30.1814C41.0409 29.7232 41.0864 29.2567 41.0864 28.7809V22.1386H44.0876V28.7809C44.0876 29.6842 43.9746 30.5261 43.7487 31.3067C43.5229 32.0872 43.1754 32.7704 42.7061 33.3557C42.2359 33.9411 41.6384 34.4021 40.9127 34.7376C40.1869 35.0729 39.3237 35.2402 38.3237 35.2402C37.2867 35.2402 36.4021 35.0637 35.6702 34.7097C34.9384 34.3566 34.3437 33.8836 33.8861 33.2916C33.4289 32.6997 33.0929 32.0139 32.8796 31.2332C32.6664 30.4527 32.5596 29.6349 32.5596 28.7809V22.1386H35.5606V28.7809C35.5606 29.2819 35.6089 29.7577 35.7069 30.2084C35.8046 30.6599 35.9629 31.0624 36.1827 31.4164C36.4021 31.7704 36.6859 32.0502 37.0334 32.2584C37.3811 32.4656 37.8112 32.5687 38.3237 32.5687Z" fill="white"/>
<path d="M49.4121 28.3238H52.1566C52.5103 28.3238 52.8155 28.1566 53.0716 27.8201C53.3276 27.4856 53.4558 27.0553 53.4558 26.5303C53.4558 25.9941 53.3095 25.5668 53.0168 25.2498C52.7241 24.9329 52.4066 24.7739 52.0651 24.7739H49.4121V28.3238ZM46.4111 35.1306V22.1386H52.2663C52.8765 22.1386 53.4405 22.2668 53.959 22.5233C54.4776 22.7798 54.926 23.1153 55.3041 23.5298C55.682 23.9441 55.978 24.4143 56.1916 24.9384C56.4048 25.4634 56.5118 25.9941 56.5118 26.5303C56.5118 26.9326 56.463 27.3203 56.3653 27.6928C56.2673 28.0644 56.1275 28.4148 55.9443 28.7448C55.7613 29.0738 55.5388 29.3701 55.2768 29.6323C55.0141 29.8943 54.7181 30.1173 54.3893 30.3003L57.2435 35.1306H53.8581L51.3701 30.9406H49.4121V35.1306H46.4111Z" fill="white"/>
<path d="M66.4663 25.9448C66.4297 25.8965 66.3015 25.8045 66.0822 25.6707C65.8623 25.536 65.5878 25.3957 65.2588 25.2498C64.9293 25.103 64.5693 24.9747 64.179 24.865C63.7883 24.7553 63.398 24.7005 63.0082 24.7005C61.9345 24.7005 61.3977 25.0602 61.3977 25.7803C61.3977 25.9997 61.4553 26.1827 61.5715 26.3295C61.6872 26.4755 61.8582 26.6065 62.084 26.7227C62.3093 26.8388 62.5933 26.9457 62.9348 27.0432C63.2762 27.1408 63.6725 27.2503 64.1242 27.3722C64.7463 27.5432 65.3072 27.729 65.8075 27.9307C66.3075 28.1313 66.7317 28.3813 67.0793 28.6807C67.4268 28.9798 67.6948 29.3422 67.8845 29.7697C68.0737 30.1962 68.1678 30.7092 68.1678 31.3067C68.1678 32.038 68.0308 32.6578 67.7562 33.1635C67.4817 33.6698 67.1187 34.0787 66.6675 34.39C66.216 34.7003 65.698 34.9262 65.112 35.0663C64.5265 35.2068 63.923 35.2773 63.3008 35.2773C62.825 35.2773 62.3368 35.2402 61.8368 35.1668C61.3365 35.0943 60.8485 34.9875 60.3732 34.8472C59.8973 34.7068 59.4365 34.5387 58.9913 34.3437C58.5458 34.1485 58.1342 33.9225 57.7563 33.667L59.0737 31.0502C59.1225 31.1115 59.2813 31.2267 59.5495 31.3978C59.818 31.5687 60.1502 31.7398 60.547 31.9098C60.9433 32.0807 61.3852 32.233 61.8735 32.3678C62.3613 32.5017 62.8553 32.5687 63.3557 32.5687C64.4168 32.5687 64.9475 32.2462 64.9475 31.5995C64.9475 31.355 64.868 31.1543 64.7097 30.9955C64.5512 30.8365 64.3313 30.6933 64.0508 30.5652C63.7702 30.4368 63.4378 30.3178 63.0537 30.2083C62.6695 30.0987 62.2513 29.9768 61.8002 29.8422C61.2025 29.659 60.684 29.4612 60.245 29.2473C59.806 29.0347 59.4425 28.7875 59.1563 28.5068C58.8692 28.2262 58.656 27.9028 58.5157 27.5367C58.3753 27.1705 58.3052 26.744 58.3052 26.2562C58.3052 25.5732 58.4333 24.9692 58.6893 24.4442C58.9458 23.92 59.2933 23.4777 59.7325 23.118C60.1715 22.7583 60.6808 22.487 61.2607 22.304C61.8395 22.121 62.4528 22.0288 63.0992 22.0288C63.5503 22.0288 63.996 22.0717 64.435 22.1572C64.874 22.2427 65.2952 22.3523 65.698 22.487C66.1003 22.6208 66.4753 22.7733 66.8233 22.9443C67.1708 23.1152 67.4908 23.2852 67.7835 23.4562L66.4663 25.9448Z" fill="white"/>
<path d="M79.0551 32.4953V35.1306H69.9243V22.1386H78.8903V24.7739H72.9253V27.2988H78.0488V29.7324H72.9253V32.4953H79.0551Z" fill="white"/>
<path d="M89.5678 31.196C89.5678 30.7937 89.4521 30.4525 89.2203 30.1719C88.9883 29.8914 88.6958 29.751 88.3421 29.751H84.8838V32.5872H88.2138C88.6041 32.5872 88.9275 32.4589 89.1835 32.2024C89.44 31.9469 89.5678 31.6114 89.5678 31.196ZM84.8838 24.7004V27.3907H87.8296C88.1591 27.3907 88.4518 27.281 88.7078 27.0607C88.9643 26.8415 89.0925 26.5004 89.0925 26.0367C89.0925 25.6092 88.9791 25.2804 88.7538 25.048C88.528 24.8167 88.2566 24.7004 87.9393 24.7004H84.8838ZM92.6236 31.8C92.6236 32.3612 92.5076 32.8492 92.2761 33.2645C92.0443 33.6789 91.7275 34.0237 91.3246 34.2979C90.9221 34.572 90.4525 34.7802 89.9158 34.9205C89.3786 35.0607 88.8115 35.1304 88.2138 35.1304H81.8828V22.1385H89.1106C89.5618 22.1385 89.9706 22.237 90.3363 22.4312C90.7025 22.6272 91.0138 22.88 91.2698 23.1914C91.5258 23.5017 91.7241 23.8557 91.8645 24.2525C92.0043 24.6484 92.075 25.0545 92.075 25.469C92.075 26.0915 91.9193 26.677 91.6085 27.2252C91.2971 27.7745 90.8306 28.1899 90.2086 28.4695C90.9525 28.6897 91.5411 29.08 91.9741 29.6414C92.4071 30.2025 92.6236 30.9219 92.6236 31.8Z" fill="#EC8C22"/>
<path d="M103.529 32.4953V35.1306H94.3984V22.1386H103.364V24.7739H97.3996V27.2988H102.523V29.7324H97.3996V32.4953H103.529Z" fill="#EC8C22"/>
<path d="M114.49 32.4953V35.1306H105.359V22.1386H114.325V24.7739H108.36V27.2988H113.484V29.7324H108.36V32.4953H114.49Z" fill="#EC8C22"/>
<path d="M95.8175 10.9688C95.8175 12.7206 94.3973 14.1406 92.6456 14.1406C90.8938 14.1406 89.4736 12.7206 89.4736 10.9688C89.4736 9.21696 90.8938 7.79679 92.6456 7.79679C94.3973 7.79679 95.8175 9.21696 95.8175 10.9688Z" fill="#EC8C22"/>
<path d="M72.0919 7.79675C72.0919 9.54858 70.6717 10.9688 68.92 10.9688C67.1682 10.9688 65.748 9.54858 65.748 7.79675C65.748 6.04508 67.1682 4.62492 68.92 4.62492C70.6717 4.62492 72.0919 6.04508 72.0919 7.79675Z" fill="white"/>
<path d="M84.237 22.6758L83.291 22.5753C83.9418 16.4739 89.82 12.5784 90.07 12.4158L90.5898 13.2131C90.5322 13.2503 84.8397 17.0304 84.237 22.6758Z" fill="#EC8C22"/>
<path d="M77.3981 22.7036L76.4589 22.5484C76.4679 22.4936 77.2689 16.9468 70.8574 9.79245L71.5664 9.15678C78.3098 16.6819 77.4384 22.4611 77.3981 22.7036Z" fill="white"/>
</svg>
