<svg width="240" height="160" viewBox="0 0 240 160" fill="none" xmlns="http://www.w3.org/2000/svg">
<rect width="240" height="160" fill="#F4F5F6"/>
<path fill-rule="evenodd" clip-rule="evenodd" d="M109.888 103.333H130.11C138.02 103.333 143.333 97.7842 143.333 89.5275V70.4722C143.333 62.2154 138.02 56.6665 130.112 56.6665H109.888C101.979 56.6665 96.6665 62.2154 96.6665 70.4722V89.5275C96.6665 97.7842 101.979 103.333 109.888 103.333ZM111.831 77.6665C108.614 77.6665 106 75.0491 106 71.8332C106 68.6172 108.614 65.9998 111.831 65.9998C115.045 65.9998 117.661 68.6172 117.661 71.8332C117.661 75.0491 115.045 77.6665 111.831 77.6665ZM138.248 86.8457C139.03 88.8492 138.624 91.2571 137.789 93.2413C136.798 95.6011 134.903 97.3879 132.514 98.1681C131.453 98.5148 130.341 98.6665 129.231 98.6665H109.567C107.61 98.6665 105.878 98.197 104.459 97.3229C103.569 96.7738 103.412 95.5072 104.072 94.6861C105.174 93.3136 106.263 91.9362 107.361 90.5468C109.454 87.8884 110.864 87.1178 112.432 87.7945C113.067 88.0738 113.706 88.4928 114.363 88.9359C116.113 90.1254 118.546 91.7604 121.751 89.9857C123.945 88.7573 125.217 86.6501 126.325 84.8152L126.343 84.7845C126.422 84.6558 126.499 84.5271 126.577 84.3987L126.577 84.3987C126.949 83.7826 127.317 83.1749 127.732 82.6149C128.253 81.9142 130.184 79.7229 132.685 81.2833C134.278 82.2657 135.618 83.595 137.052 85.0181C137.598 85.5623 137.988 86.1811 138.248 86.8457Z" fill="#C0CBD9"/>
</svg>
