<svg width="528" height="420" viewBox="0 0 528 420" fill="none" xmlns="http://www.w3.org/2000/svg">
<rect width="528" height="420" rx="16" fill="#16181D"/>
<path fillRule="evenodd" clipRule="evenodd" d="M242.331 260H285.664C302.616 260 314 248.109 314 230.416V189.584C314 171.891 302.616 160 285.669 160H242.331C225.384 160 214 171.891 214 189.584V230.416C214 248.109 225.384 260 242.331 260ZM246.494 205C239.601 205 234 199.391 234 192.5C234 185.609 239.601 180 246.494 180C253.382 180 258.989 185.609 258.989 192.5C258.989 199.391 253.382 205 246.494 205ZM303.104 224.67C304.778 228.963 303.909 234.123 302.119 238.375C299.997 243.431 295.934 247.26 290.816 248.932C288.543 249.675 286.16 250 283.782 250H241.643C237.45 250 233.739 248.994 230.698 247.121C228.792 245.944 228.455 243.23 229.868 241.471C232.231 238.529 234.564 235.578 236.917 232.601C241.402 226.904 244.424 225.253 247.782 226.703C249.145 227.301 250.512 228.199 251.92 229.149C255.671 231.698 260.885 235.201 267.753 231.398C272.453 228.766 275.179 224.251 277.553 220.319L277.593 220.253C277.761 219.977 277.928 219.701 278.094 219.426C278.892 218.106 279.679 216.804 280.569 215.604C281.685 214.102 285.823 209.407 291.183 212.75C294.597 214.856 297.468 217.704 300.54 220.753C301.711 221.92 302.546 223.246 303.104 224.67Z" fill="#23272E"/>
</svg>
