<svg width="416" height="272" viewBox="0 0 416 272" fill="none" xmlns="http://www.w3.org/2000/svg">
<rect width="416" height="272" rx="16" fill="#E9EDF2"/>
<path fillRule="evenodd" clipRule="evenodd" d="M186.331 186H229.664C246.616 186 258 174.109 258 156.416V115.584C258 97.8906 246.616 86 229.669 86H186.331C169.384 86 158 97.8906 158 115.584V156.416C158 174.109 169.384 186 186.331 186ZM190.494 131C183.601 131 178 125.391 178 118.5C178 111.609 183.601 106 190.494 106C197.382 106 202.989 111.609 202.989 118.5C202.989 125.391 197.382 131 190.494 131ZM247.104 150.67C248.778 154.963 247.909 160.123 246.119 164.375C243.997 169.431 239.934 173.26 234.816 174.932C232.543 175.675 230.16 176 227.782 176H185.643C181.45 176 177.739 174.994 174.698 173.121C172.792 171.944 172.455 169.23 173.868 167.471C176.231 164.529 178.564 161.578 180.917 158.601C185.402 152.904 188.424 151.253 191.782 152.703C193.145 153.301 194.512 154.199 195.92 155.149C199.671 157.698 204.885 161.201 211.753 157.398C216.453 154.766 219.179 150.251 221.553 146.319L221.593 146.253C221.761 145.977 221.928 145.701 222.094 145.426L222.094 145.426C222.892 144.106 223.679 142.804 224.569 141.604C225.685 140.102 229.823 135.407 235.183 138.75C238.597 140.856 241.468 143.704 244.54 146.753C245.711 147.92 246.546 149.246 247.104 150.67Z" fill="#C0CBD9"/>
</svg>
