<svg width="528" height="484" viewBox="0 0 528 484" fill="none" xmlns="http://www.w3.org/2000/svg">
<rect width="528" height="484" rx="16" fill="#F4F5F6"/>
<path fill-rule="evenodd" clip-rule="evenodd" d="M242.331 292H285.664C302.616 292 314 280.109 314 262.416V221.584C314 203.891 302.616 192 285.669 192H242.331C225.384 192 214 203.891 214 221.584V262.416C214 280.109 225.384 292 242.331 292ZM246.494 237C239.601 237 234 231.391 234 224.5C234 217.609 239.601 212 246.494 212C253.382 212 258.989 217.609 258.989 224.5C258.989 231.391 253.382 237 246.494 237ZM303.104 256.67C304.778 260.963 303.909 266.123 302.119 270.375C299.997 275.431 295.934 279.26 290.816 280.932C288.543 281.675 286.16 282 283.782 282H241.643C237.45 282 233.739 280.994 230.698 279.121C228.792 277.944 228.455 275.23 229.868 273.471C232.231 270.529 234.564 267.578 236.917 264.601C241.402 258.904 244.424 257.253 247.782 258.703C249.145 259.301 250.512 260.199 251.92 261.149C255.671 263.698 260.885 267.201 267.753 263.398C272.453 260.766 275.179 256.251 277.553 252.319L277.593 252.253C277.761 251.977 277.928 251.701 278.094 251.426L278.094 251.426C278.892 250.106 279.679 248.804 280.569 247.604C281.685 246.102 285.823 241.407 291.183 244.75C294.597 246.856 297.468 249.704 300.54 252.753C301.711 253.92 302.546 255.246 303.104 256.67Z" fill="#C0CBD9"/>
</svg>
